<?xml version="1.0" standalone="no"?><!DOCTYPE svg PUBLIC "-//W3C//DTD SVG 1.1//EN" "http://www.w3.org/Graphics/SVG/1.1/DTD/svg11.dtd"><svg t="1707150645878" class="icon" viewBox="0 0 1793 1024" version="1.1" xmlns="http://www.w3.org/2000/svg" p-id="995" xmlns:xlink="http://www.w3.org/1999/xlink" width="350.1953125" height="200"><path d="M182.231278 344.413755h-60.258407L16.01664 7.280291h60.706424l74.594979 237.449483L220.200794 7.280291h60.706425l74.706983 237.449483L424.384949 7.280291h60.258406l-98.227923 337.133464h-60.258406l-74.594979-237.449483-69.330769 237.449483z m534.037328-91.507655H529.445145q4.816192 11.088443 14.000559 19.712788 10.080403 10.192407 22.624903 15.232608 12.432497 5.040201 26.433056 5.040201 19.712787 0 35.169405-9.184366l60.258406 24.080961q-17.360693 20.27281-42.001677 31.585262-24.52898 11.312452-53.426134 11.312452-26.433056 0-49.617982-9.856394-23.072921-9.856394-40.433614-27.217087-17.360693-17.360693-27.217087-40.433615-9.856394-23.184926-9.856394-49.169964 0-26.54506 9.856394-49.617981 9.856394-23.072921 27.217087-40.433615 17.360693-17.360693 40.433614-27.217087 23.184926-9.856394 49.617982-9.856394 26.54506 0 49.617982 9.856394 23.072921 9.856394 40.433615 27.217087 17.360693 17.360693 27.217087 40.433615 9.856394 23.072921 9.856393 49.617981 0 15.456617-3.360134 28.897154zM592.503663 154.678177q-27.889114 0-49.057959 20.160806-9.184367 9.184367-14.000559 20.272809h126.117037q-4.816192-11.088443-13.888555-20.272809-20.27281-20.160805-49.169964-20.160806z m285.611407-57.34629q26.54506 0 48.83395 9.856394 22.400895 9.856394 38.865552 27.217087 16.352653 17.360693 25.53702 40.433615 9.072362 23.184926 9.072362 49.617981 0 25.985038-9.072362 49.169964-9.184367 23.072921-25.53702 40.433615-16.464658 17.360693-38.865552 27.217087-22.28889 9.856394-48.83395 9.856393-28.449136 0-51.522058-11.088442l20.720828-51.522058q11.536461 4.816192 25.985037 4.816192 29.345172 0 49.169964-20.160805 20.160805-20.27281 20.160805-48.721946 0-28.897154-20.160805-49.057959-20.27281-20.27281-49.169964-20.27281-27.889114 0-49.169963 20.27281-20.160805 20.160805-20.160806 49.057959v120.404809h-57.794308V7.280291h57.794308v115.588616q14.000559-11.088443 32.257289-18.256729 18.256729-7.280291 41.889673-7.280291z m400.191982 161.398446l40.993638 40.433615q-24.080962 24.080962-55.890233 37.745507-31.80927 13.77655-68.434733 13.776551-36.06544 0-68.098719-13.776551-32.033279-13.664546-55.890232-37.521498-23.856953-23.856953-37.521499-55.890232-13.77655-32.033279-13.77655-68.09872 0-36.177445 13.77655-68.210724 13.664546-32.033279 37.521499-55.890232 23.856953-23.744948 55.890232-37.521499Q1158.910284 0 1194.975724 0q36.625463 0 68.434733 13.77655 31.80927 13.77655 55.890233 37.857512l-40.993638 40.881633q-16.800671-16.800671-37.969516-25.761029-21.28085-8.960358-45.361812-8.960358-23.520939 0-44.689784 8.960358-21.28085 8.960358-38.081521 25.761029-16.912675 16.912675-25.761029 38.081521-8.960358 21.168845-8.960358 44.801789 0 23.520939 8.960358 45.025798 8.848353 21.392854 25.761029 38.30553 16.800671 16.800671 38.081521 25.425015 21.168845 8.736349 44.689784 8.736349 24.080962 0 45.361812-8.736349 21.168845-8.624344 37.969516-25.425015zM1401.175959 7.728309v336.685446h-57.794308V7.728309h57.794308z m239.801578-0.448018l152.214079 337.133464h-63.618541l-25.985038-57.794308-25.985038-57.794308-68.434733-151.206039-68.322728 151.206039h87.587498l26.097042 57.794308h-139.669578l-26.097043 57.794308h-63.506536L1577.471 7.280291h63.506537z" fill="#146DFC" p-id="996"></path><path d="M1336.258167 506.506629l-18.592743-88.147521h11.536461l9.296371 47.937915q1.120045 7.280291 2.464099 14.224568 1.344054 7.056282 2.576103 14.336572h0.560022q1.456058-7.280291 3.136125-14.336572 1.568063-7.056282 3.024121-14.224568l12.208488-47.937915h10.304411l12.208488 47.937915q1.568063 7.056282 3.248129 14.112563 1.568063 7.168286 3.136126 14.448577h0.560022q1.232049-7.280291 2.464098-14.336572t2.576103-14.224568l9.184367-47.937915h10.752429l-18.256729 88.147521h-13.440536l-13.328533-53.090121q-1.120045-5.152206-2.128085-9.968398-1.00804-4.928197-2.128085-10.080402h-0.560022q-1.00804 5.152206-2.24009 10.080402-1.120045 4.816192-2.128085 9.968398l-13.104523 53.090121h-13.328532z m95.987833 0v-88.147521h50.850031v9.408376h-39.649583v27.665105h33.489337v9.52038h-33.489337v32.033279h40.993637v9.520381h-52.194085z m70.898832 0v-88.147521h50.738026v9.408376h-39.649583v27.665105h33.489337v9.52038h-33.489337v32.033279h40.993637v9.520381h-52.08208z m70.786827 0v-88.147521h11.200447v44.241767h0.336014l36.737467-44.241767h12.656505l-27.5531 33.601342 31.80927 54.546179h-12.544501l-26.321051-45.80983-15.120604 17.808711v28.001119h-11.200447z m77.843109 0v-88.147521h11.088443v78.62714h38.641543v9.520381h-49.729986z m69.330769 0v-34.161365l-26.433056-53.986156h11.872474l11.424456 24.864993q2.240089 4.816192 4.25617 9.52038t4.25617 9.632385h0.560023q2.240089-4.928197 4.592183-9.632385 2.240089-4.704188 4.25617-9.52038l11.312452-24.864993h11.648465l-26.433056 53.986156v34.161365h-11.312451z" fill="#146DFC" p-id="997"></path></svg>