<?xml version="1.0" standalone="no"?><!DOCTYPE svg PUBLIC "-//W3C//DTD SVG 1.1//EN" "http://www.w3.org/Graphics/SVG/1.1/DTD/svg11.dtd"><svg t="1707150634744" class="icon" viewBox="0 0 1618 1024" version="1.1" xmlns="http://www.w3.org/2000/svg" p-id="861" xmlns:xlink="http://www.w3.org/1999/xlink" width="316.015625" height="200"><path d="M1205.533873 0.213283c105.99366 0.720066 242.80613-2.448223 379.474586 5.760525 37.155386 2.160197 40.899728 7.344669 21.457955 39.891636q-232.437184 388.835439-465.162395 778.534956L1036.894503 1001.104505c-17.857628 30.098743-25.058284 30.386769-43.203937 0Q756.356935 599.451898 520.175409 197.511265c-18.577693-31.682888-39.17157-47.380318-76.903009-45.364134-51.556699 2.736249-103.257411 1.152105-154.81411 0-27.362494 0-31.394861 8.064735-17.425588 31.250848q155.966215 259.223626 311.068351 518.447252c13.249208 22.322034 24.194205 23.906179 37.587426 0 11.377037-19.729798 23.906179-38.883544 36.003281-57.605251s23.474139-18.145654 34.56315 0c20.305851 34.131111 40.179662 68.262221 60.629526 102.24932 9.792893 15.985457 4.176381 28.802625-4.464407 43.203937C705.664315 858.531511 665.484653 926.937746 624.296899 993.903849c-20.305851 33.411045-27.074468 33.123019-48.100384-2.160197q-135.804377-226.24462-271.176715-453.641345L24.770258 68.187479C19.873811 59.97873 14.401313 51.769982 10.224932 43.417221-7.056643 12.166373-4.176381 6.837887 32.402953 6.405848 201.618376 4.245651 370.545772 2.949533 539.761194 0.213283a64.229854 64.229854 0 0 1 63.221762 36.435321c129.611813 222.644292 262.103888 444.280492 392.57978 666.924784 14.401313 25.202297 21.745982 30.098743 38.739531 1.296118 100.809188-169.359436 201.618376-337.854792 302.427563-506.782188 21.745982-36.147294 19.729798-39.459596-20.881903-39.459597H1132.231192c-39.459596 0-40.323675 2.016184-19.585785 37.155387 18.721706 32.114927 37.011373 64.661893 57.60525 95.768728a44.932095 44.932095 0 0 1 1.008092 53.42887c-19.441772 31.682888-37.875452 63.941828-57.60525 95.912741-12.529142 20.881903-24.914271 19.729798-36.86736-0.720065q-119.530894-203.490546-239.061788-406.693067C820.874815 4.67769 838.732443 0.213283 861.63053 0.213283z" fill="#146DFC" p-id="862"></path></svg>